<?xml version="1.0" encoding="UTF-8"?>
<svg width="130px" height="25px" viewBox="0 0 130 25" version="1.1" xmlns="http://www.w3.org/2000/svg" xmlns:xlink="http://www.w3.org/1999/xlink">
    <!-- Generator: Sketch 56.2 (81672) - https://sketch.com -->
    <title>Group 4</title>
    <desc>Created with Sketch.</desc>
    <g id="Page-1" stroke="none" stroke-width="1" fill="none" fill-rule="evenodd">
        <g id="Artboard-Copy" transform="translate(-358.000000, -153.000000)">
            <g id="Group-4" transform="translate(358.000000, 153.000000)">
                <g id="logo-2">
                    <g id="logo">
                        <rect id="Rectangle" fill="#FFFFFF" fill-rule="nonzero" x="0" y="0" width="130" height="25"></rect>
                        <g transform="translate(36.000000, 0.000000)" fill="#000000" font-family="SFProDisplay-Regular, SF Pro Display" font-size="20" font-weight="normal" id="Event-App">
                            <text>
                                <tspan x="0" y="19">Event App</tspan>
                            </text>
                        </g>
                        <g id="calendar-favorite" transform="translate(7.000000, 10.000000)" fill="#003D7D" fill-rule="nonzero">
                            <path d="M9.69583333,4.14375 L7.56041667,4.14375 L6.4375,1.52604167 L6.42708333,1.50416667 C6.24783685,1.1538484 5.88566504,0.935253936 5.49217973,0.939818624 C5.09869441,0.944528001 4.74177453,1.1715966 4.57083333,1.52604167 L3.440625,4.14375 L1.29895833,4.14375 C0.890226995,4.13245281 0.517068879,4.37500559 0.361458333,4.753125 C0.208140869,5.14302307 0.309429265,5.58703833 0.616666667,5.871875 L2.48229167,7.53854167 L1.440625,9.92708333 C1.26210561,10.3280884 1.36412157,10.7985422 1.69270833,11.0895833 C1.8820937,11.2624192 2.12902157,11.3585911 2.38541667,11.359375 C2.56551537,11.3590481 2.7424526,11.3120323 2.89895833,11.2229167 L5.5,9.75833333 L8.09166667,11.2166667 C8.47953654,11.4412999 8.96847087,11.3872554 9.29791667,11.0833333 C9.62680617,10.7924695 9.7288684,10.3218024 9.55,9.92083333 L8.50833333,7.53229167 L10.3958333,5.85833333 C10.6930855,5.57343835 10.7882153,5.13691175 10.6364583,4.75416667 C10.4798102,4.37534515 10.1056114,4.13250961 9.69583333,4.14375 L9.69583333,4.14375 Z" id="Path"></path>
                        </g>
                    </g>
                </g>
                <path d="M22.3958333,3.125 L19.53125,3.125 C19.3874258,3.125 19.2708333,3.00840749 19.2708333,2.86458333 L19.2708333,1.04166667 C19.2708333,0.466370052 18.8044633,0 18.2291667,0 C17.6538701,0 17.1875,0.466370052 17.1875,1.04166667 L17.1875,5.98958333 C17.1875,6.42105579 16.8377225,6.77083333 16.40625,6.77083333 C15.9747775,6.77083333 15.625,6.42105579 15.625,5.98958333 L15.625,3.64583333 C15.625,3.35818503 15.391815,3.125 15.1041667,3.125 L8.59375,3.125 C8.45033166,3.12500115 8.33390701,3.00904219 8.33333333,2.865625 L8.33333333,1.04166667 C8.33333333,0.466370052 7.86696328,0 7.29166667,0 C6.71637005,0 6.25,0.466370052 6.25,1.04166667 L6.25,5.98958333 C6.25,6.42105579 5.90022246,6.77083333 5.46875,6.77083333 C5.03727754,6.77083333 4.6875,6.42105579 4.6875,5.98958333 L4.6875,3.64583333 C4.6875,3.35818503 4.45431497,3.125 4.16666667,3.125 L2.60416667,3.125 C1.45357344,3.125 0.520833333,4.0577401 0.520833333,5.20833333 L0.520833333,22.9166667 C0.520833333,24.0672599 1.45357344,25 2.60416667,25 L22.3958333,25 C23.5464266,25 24.4791667,24.0672599 24.4791667,22.9166667 L24.4791667,5.20833333 C24.4791667,4.0577401 23.5464266,3.125 22.3958333,3.125 Z M22.3958333,22.3958333 C22.3958333,22.6834816 22.1626483,22.9166667 21.875,22.9166667 L3.125,22.9166667 C2.83735169,22.9166667 2.60416667,22.6834816 2.60416667,22.3958333 L2.60416667,9.89583333 C2.60416667,9.60818503 2.83735169,9.375 3.125,9.375 L21.875,9.375 C22.1626483,9.375 22.3958333,9.60818503 22.3958333,9.89583333 L22.3958333,22.3958333 Z" id="Shape" fill="#003D7D" fill-rule="nonzero"></path>
            </g>
        </g>
    </g>
</svg>