<?xml version="1.0" encoding="UTF-8"?>
<svg width="130px" height="26px" viewBox="0 0 130 26" version="1.1" xmlns="http://www.w3.org/2000/svg" xmlns:xlink="http://www.w3.org/1999/xlink">
    <!-- Generator: Sketch 56.2 (81672) - https://sketch.com -->
    <title>Group 5</title>
    <desc>Created with Sketch.</desc>
    <g id="Page-1" stroke="none" stroke-width="1" fill="none" fill-rule="evenodd">
        <g id="Artboard-Copy" transform="translate(-358.000000, -152.000000)">
            <g id="Group-5" transform="translate(358.000000, 152.000000)">
                <g id="Group-4" transform="translate(0.000000, 1.000000)">
                    <g id="logo-2">
                        <g id="logo">
                            <rect id="Rectangle" fill="#FFFFFF" fill-rule="nonzero" x="0" y="0" width="130" height="25"></rect>
                            <g transform="translate(36.000000, 0.000000)" fill="#000000" font-family="SFProDisplay-Regular, SF Pro Display" font-size="20" font-weight="normal" id="Event-App">
                                <text>
                                    <tspan x="0" y="19">Event App</tspan>
                                </text>
                            </g>
                            <g id="calendar-favorite" transform="translate(7.000000, 10.000000)"></g>
                        </g>
                    </g>
                </g>
                <g id="layout-dashboard" fill="#003D7D" fill-rule="nonzero">
                    <path d="M0.826041667,0.81875 C0.630677735,1.01405493 0.520833333,1.27896374 0.520833333,1.55520833 L0.520833333,13.0291667 C0.520833333,13.6044633 0.987203386,14.0708333 1.5625,14.0708333 L9.89583333,14.0708333 C10.4711299,14.0708333 10.9375,13.6044633 10.9375,13.0291667 L10.9375,1.57083333 C10.9375,0.995536719 10.4711299,0.529166667 9.89583333,0.529166667 L1.5625,0.513541667 C1.2862554,0.513541667 1.0213466,0.623386068 0.826041667,0.81875 Z" id="Path"></path>
                    <path d="M23.4375,0.513541667 L15.1041667,0.528125 C14.5288701,0.528125 14.0625,0.994495052 14.0625,1.56979167 L14.0625,6.778125 C14.0625,7.35342161 14.5288701,7.81979167 15.1041667,7.81979167 L23.4375,7.81979167 C24.0127966,7.81979167 24.4791667,7.35342161 24.4791667,6.778125 L24.4791667,1.55520833 C24.4791667,0.979911719 24.0127966,0.513541667 23.4375,0.513541667 Z" id="Path"></path>
                    <path d="M10.6322917,24.18125 C10.8276556,23.9859451 10.9375,23.7210363 10.9375,23.4447917 L10.9375,18.2364583 C10.9375,17.6611617 10.4711299,17.1947917 9.89583333,17.1947917 L1.5625,17.1947917 C0.987203386,17.1947917 0.520833333,17.6611617 0.520833333,18.2364583 L0.520833333,23.4291667 C0.520833333,24.0044633 0.987203386,24.4708333 1.5625,24.4708333 L9.89583333,24.485417 C10.1719285,24.485634 10.4368163,24.376232 10.6322917,24.18125 Z" id="Path"></path>
                    <path d="M23.4375,10.9458333 L15.1041667,10.9458333 C14.5288701,10.9458333 14.0625,11.4122034 14.0625,11.9875 L14.0625,23.4458333 C14.0625,24.0211299 14.5288701,24.4875 15.1041667,24.4875 L23.4375,24.4729167 C24.0127966,24.4729167 24.4791667,24.0065466 24.4791667,23.43125 L24.4791667,11.9875 C24.4791667,11.4122034 24.0127966,10.9458333 23.4375,10.9458333 Z" id="Path"></path>
                </g>
            </g>
        </g>
    </g>
</svg>